<svg width="86" height="86" viewBox="0 0 86 86" fill="none" xmlns="http://www.w3.org/2000/svg">
<g filter="url(#filter0_d_1186_24340)">
<path d="M14.5506 23.4232C17.2652 15.9414 18.5854 12.1902 20.7006 9.72381C22.5611 7.5543 24.808 6.06361 27.1342 5.45827C29.7788 4.77008 32.5259 5.82148 38.0667 7.83186L67.8432 18.6357C73.384 20.6461 76.1661 21.6009 77.7541 23.8248C79.151 25.781 79.9192 28.3656 79.9557 31.2234C79.9971 34.4723 78.6047 38.1973 75.8901 45.6791L71.0012 59.1532C68.2866 66.635 66.9664 70.3862 64.8513 72.8526C62.9907 75.0221 60.7439 76.5128 58.4176 77.1181C55.773 77.8063 53.0259 76.7549 47.4851 74.7445L17.7087 63.9407C12.1679 61.9303 9.38571 60.9755 7.79771 58.7516C6.40086 56.7954 5.63266 54.2108 5.59619 51.353C5.55473 48.1041 6.94715 44.3791 9.66177 36.8973L14.5506 23.4232Z" fill="white"/>
</g>
<path d="M43.9165 46.5627L39.572 41.6477C39.0732 41.0838 39.0621 40.2385 39.5446 39.6587L43.84 34.511L49.2764 27.9935C49.5553 27.6591 49.9622 27.4617 50.3936 27.4466L56.6933 27.2274C58.0113 27.1815 58.7611 28.7132 57.9193 29.727L49.0155 40.4313" fill="#FB923C"/>
<path d="M47.2964 41.1511C47.6371 41.5372 47.6441 42.1129 47.3148 42.5067L42.7504 47.9753L37.1733 54.6601C36.9848 54.8866 36.7067 55.0219 36.4112 55.0322L28.8144 55.2967C27.9149 55.328 27.402 54.2828 27.9774 53.5899L37.0043 42.7373C37.331 42.3436 37.3242 41.7705 36.9888 41.3868L26.9925 29.9606C26.4145 29.2999 26.8628 28.2658 27.7389 28.2353L35.1448 27.9775C35.456 27.9667 35.7537 28.0951 35.9608 28.3288L42.6739 35.9236L47.2938 41.1511L47.2964 41.1511Z" fill="#683FEA"/>
<path d="M48.8463 42.7751L44.0306 48.5458C43.885 48.7263 43.8589 49.0283 44.0116 49.2036L48.8725 54.661L58.0495 54.5117C58.4577 54.5054 58.6688 54.0241 58.3989 53.7193L49.0258 43.1171" fill="#FB923C"/>
<defs>
<filter id="filter0_d_1186_24340" x="1.5957" y="5.24762" width="82.3613" height="80.0812" filterUnits="userSpaceOnUse" color-interpolation-filters="sRGB">
<feFlood flood-opacity="0" result="BackgroundImageFix"/>
<feColorMatrix in="SourceAlpha" type="matrix" values="0 0 0 0 0 0 0 0 0 0 0 0 0 0 0 0 0 0 127 0" result="hardAlpha"/>
<feOffset dy="4"/>
<feGaussianBlur stdDeviation="2"/>
<feComposite in2="hardAlpha" operator="out"/>
<feColorMatrix type="matrix" values="0 0 0 0 0.533654 0 0 0 0 0.533654 0 0 0 0 0.533654 0 0 0 0.25 0"/>
<feBlend mode="normal" in2="BackgroundImageFix" result="effect1_dropShadow_1186_24340"/>
<feBlend mode="normal" in="SourceGraphic" in2="effect1_dropShadow_1186_24340" result="shape"/>
</filter>
</defs>
</svg>
