<svg width="32" height="30" viewBox="0 0 32 30" fill="none" xmlns="http://www.w3.org/2000/svg">
<path d="M25.7076 22.7855C25.8005 22.8716 25.8742 22.9737 25.9245 23.0861C25.9747 23.1985 26.0006 23.3189 26.0006 23.4406C26.0006 23.5622 25.9747 23.6827 25.9245 23.7951C25.8742 23.9075 25.8005 24.0096 25.7076 24.0956C25.6147 24.1816 25.5044 24.2499 25.383 24.2964C25.2616 24.343 25.1315 24.3669 25.0001 24.3669C24.8687 24.3669 24.7386 24.343 24.6172 24.2964C24.4958 24.2499 24.3855 24.1816 24.2926 24.0956L16.0001 16.4169L7.70757 24.0956C7.51993 24.2693 7.26543 24.3669 7.00007 24.3669C6.7347 24.3669 6.48021 24.2693 6.29257 24.0956C6.10493 23.9219 5.99951 23.6863 5.99951 23.4406C5.99951 23.1949 6.10493 22.9593 6.29257 22.7855L14.5863 15.108L6.29257 7.43039C6.10493 7.25667 5.99951 7.02104 5.99951 6.77536C5.99951 6.52967 6.10493 6.29405 6.29257 6.12032C6.48021 5.9466 6.7347 5.849 7.00007 5.849C7.26543 5.849 7.51993 5.9466 7.70757 6.12032L16.0001 13.7991L24.2926 6.12032C24.4802 5.9466 24.7347 5.849 25.0001 5.849C25.2654 5.849 25.5199 5.9466 25.7076 6.12032C25.8952 6.29405 26.0006 6.52967 26.0006 6.77536C26.0006 7.02104 25.8952 7.25667 25.7076 7.43039L17.4138 15.108L25.7076 22.7855Z" fill="black"/>
</svg>
