<svg width="35" height="19" viewBox="0 0 35 19" fill="none" xmlns="http://www.w3.org/2000/svg">
<path d="M1.42514 0H32.7813C33.5684 0 34.2065 0.638119 34.2065 1.42528C34.2065 2.21244 33.5684 2.85056 32.7813 2.85056H1.42514C0.637981 2.85056 -0.000137329 2.21244 -0.000137329 1.42528C-0.000137329 0.638119 0.637981 0 1.42514 0Z" fill="#0B050F"/>
<path d="M7.12613 8.0766H32.7811C33.5683 8.0766 34.2064 8.71472 34.2064 9.50188C34.2064 10.289 33.5683 10.9272 32.7811 10.9272H7.12613C6.33898 10.9272 5.70086 10.289 5.70086 9.50188C5.70086 8.71472 6.33898 8.0766 7.12613 8.0766Z" fill="#0B050F"/>
<path d="M1.42502 16.1494H32.7811C33.5683 16.1494 34.2064 16.7875 34.2064 17.5747C34.2064 18.3619 33.5683 19 32.7811 19H1.42502C0.637859 19 -0.000259399 18.3619 -0.000259399 17.5747C-0.000259399 16.7875 0.637859 16.1494 1.42502 16.1494Z" fill="#0B050F"/>
</svg>
