<svg width="144" height="29" viewBox="0 0 144 29" fill="none" xmlns="http://www.w3.org/2000/svg">
<path d="M35.91 23.3C34.41 23.3 33.02 23.03 31.74 22.49C30.46 21.93 29.34 21.16 28.38 20.18C27.44 19.2 26.71 18.06 26.19 16.76C25.67 15.46 25.41 14.07 25.41 12.59C25.41 11.09 25.67 9.69 26.19 8.39C26.71 7.09 27.44 5.96 28.38 5C29.34 4.02 30.45 3.26 31.71 2.72C32.99 2.16 34.38 1.88 35.88 1.88C37.52 1.88 38.96 2.16 40.2 2.72C41.44 3.28 42.54 4.04 43.5 5L41.55 6.95C40.89 6.21 40.08 5.63 39.12 5.21C38.18 4.79 37.1 4.58 35.88 4.58C34.78 4.58 33.77 4.78 32.85 5.18C31.93 5.56 31.13 6.11 30.45 6.83C29.77 7.55 29.24 8.4 28.86 9.38C28.5 10.36 28.32 11.43 28.32 12.59C28.32 13.75 28.5 14.82 28.86 15.8C29.24 16.78 29.77 17.63 30.45 18.35C31.13 19.07 31.93 19.63 32.85 20.03C33.77 20.41 34.78 20.6 35.88 20.6C37.18 20.6 38.31 20.39 39.27 19.97C40.23 19.53 41.04 18.94 41.7 18.2L43.65 20.12C42.69 21.12 41.56 21.9 40.26 22.46C38.98 23.02 37.53 23.3 35.91 23.3ZM52.1963 23.3C50.8963 23.3 49.7163 22.98 48.6563 22.34C47.5963 21.68 46.7563 20.79 46.1362 19.67C45.5363 18.55 45.2363 17.29 45.2363 15.89C45.2363 14.49 45.5363 13.23 46.1362 12.11C46.7563 10.99 47.5863 10.1 48.6263 9.44C49.6863 8.78 50.8763 8.45 52.1963 8.45C53.2763 8.45 54.2363 8.68 55.0763 9.14C55.9363 9.58 56.6263 10.2 57.1463 11C57.6663 11.78 57.9563 12.69 58.0163 13.73V18.02C57.9563 19.04 57.6663 19.95 57.1463 20.75C56.6463 21.55 55.9663 22.18 55.1063 22.64C54.2663 23.08 53.2963 23.3 52.1963 23.3ZM52.6463 20.75C53.9863 20.75 55.0663 20.3 55.8863 19.4C56.7063 18.48 57.1163 17.31 57.1163 15.89C57.1163 14.91 56.9263 14.06 56.5463 13.34C56.1863 12.6 55.6663 12.03 54.9863 11.63C54.3063 11.21 53.5163 11 52.6163 11C51.7163 11 50.9163 11.21 50.2163 11.63C49.5363 12.05 48.9963 12.63 48.5963 13.37C48.2163 14.09 48.0263 14.92 48.0263 15.86C48.0263 16.82 48.2163 17.67 48.5963 18.41C48.9963 19.13 49.5463 19.7 50.2463 20.12C50.9463 20.54 51.7463 20.75 52.6463 20.75ZM56.9363 23V19.16L57.4463 15.68L56.9363 12.23V8.75H59.6663V23H56.9363ZM71.0972 23.3C70.0172 23.3 69.0372 23.08 68.1572 22.64C67.2972 22.18 66.6072 21.55 66.0872 20.75C65.5672 19.95 65.2772 19.04 65.2172 18.02V13.73C65.2772 12.69 65.5672 11.78 66.0872 11C66.6272 10.2 67.3272 9.58 68.1872 9.14C69.0672 8.68 70.0372 8.45 71.0972 8.45C72.3972 8.45 73.5672 8.78 74.6072 9.44C75.6672 10.1 76.4972 10.99 77.0972 12.11C77.6972 13.23 77.9972 14.49 77.9972 15.89C77.9972 17.29 77.6972 18.55 77.0972 19.67C76.4972 20.79 75.6672 21.68 74.6072 22.34C73.5672 22.98 72.3972 23.3 71.0972 23.3ZM63.5972 28.97V8.75H66.2972V12.5L65.7872 15.95L66.2972 19.43V28.97H63.5972ZM70.6472 20.75C71.5472 20.75 72.3372 20.54 73.0172 20.12C73.6972 19.7 74.2372 19.13 74.6372 18.41C75.0372 17.67 75.2372 16.82 75.2372 15.86C75.2372 14.92 75.0372 14.08 74.6372 13.34C74.2372 12.6 73.6972 12.03 73.0172 11.63C72.3372 11.21 71.5572 11 70.6772 11C69.7772 11 68.9872 11.21 68.3072 11.63C67.6272 12.03 67.0972 12.6 66.7172 13.34C66.3372 14.08 66.1472 14.93 66.1472 15.89C66.1472 16.83 66.3272 17.67 66.6872 18.41C67.0672 19.13 67.5972 19.7 68.2772 20.12C68.9772 20.54 69.7672 20.75 70.6472 20.75ZM82.8087 23V2.78H85.5087V23H82.8087ZM79.2987 11.21V8.75H89.0187V11.21H79.2987ZM97.2841 23.3C95.9841 23.3 94.8041 22.98 93.7441 22.34C92.6841 21.68 91.8441 20.79 91.2241 19.67C90.6241 18.55 90.3241 17.29 90.3241 15.89C90.3241 14.49 90.6241 13.23 91.2241 12.11C91.8441 10.99 92.6741 10.1 93.7141 9.44C94.7741 8.78 95.9641 8.45 97.2841 8.45C98.3641 8.45 99.3241 8.68 100.164 9.14C101.024 9.58 101.714 10.2 102.234 11C102.754 11.78 103.044 12.69 103.104 13.73V18.02C103.044 19.04 102.754 19.95 102.234 20.75C101.734 21.55 101.054 22.18 100.194 22.64C99.3541 23.08 98.3841 23.3 97.2841 23.3ZM97.7341 20.75C99.0741 20.75 100.154 20.3 100.974 19.4C101.794 18.48 102.204 17.31 102.204 15.89C102.204 14.91 102.014 14.06 101.634 13.34C101.274 12.6 100.754 12.03 100.074 11.63C99.3941 11.21 98.6041 11 97.7041 11C96.8041 11 96.0041 11.21 95.3041 11.63C94.6241 12.05 94.0841 12.63 93.6841 13.37C93.3041 14.09 93.1141 14.92 93.1141 15.86C93.1141 16.82 93.3041 17.67 93.6841 18.41C94.0841 19.13 94.6341 19.7 95.3341 20.12C96.0341 20.54 96.8341 20.75 97.7341 20.75ZM102.024 23V19.16L102.534 15.68L102.024 12.23V8.75H104.754V23H102.024ZM108.715 23V8.75H111.415V23H108.715ZM110.065 5.9C109.565 5.9 109.155 5.74 108.835 5.42C108.515 5.08 108.355 4.66 108.355 4.16C108.355 3.68 108.515 3.28 108.835 2.96C109.155 2.62 109.565 2.45 110.065 2.45C110.565 2.45 110.975 2.62 111.295 2.96C111.615 3.28 111.775 3.68 111.775 4.16C111.775 4.66 111.615 5.08 111.295 5.42C110.975 5.74 110.565 5.9 110.065 5.9ZM125.474 23V14.69C125.474 13.61 125.134 12.72 124.454 12.02C123.774 11.32 122.894 10.97 121.814 10.97C121.094 10.97 120.454 11.13 119.894 11.45C119.334 11.77 118.894 12.21 118.574 12.77C118.254 13.33 118.094 13.97 118.094 14.69L116.984 14.06C116.984 12.98 117.224 12.02 117.704 11.18C118.184 10.34 118.854 9.68 119.714 9.2C120.574 8.7 121.544 8.45 122.624 8.45C123.704 8.45 124.654 8.72 125.474 9.26C126.314 9.8 126.974 10.51 127.454 11.39C127.934 12.25 128.174 13.17 128.174 14.15V23H125.474ZM115.394 23V8.75H118.094V23H115.394Z" fill="#0B050F"/>
<path d="M139.942 23L138.062 19.6123C137.828 19.2172 137.621 18.8611 137.43 18.5298C137.258 18.8487 137.062 19.2048 136.826 19.6176L135.047 23H131L135.406 15.4185L131.163 8H135.209L137.149 11.5826C137.271 11.8058 137.389 12.022 137.505 12.2364C137.619 12.0237 137.74 11.8058 137.871 11.5719L139.871 8H143.929L139.523 15.3299L144 23H139.944H139.942Z" fill="#0B050F"/>
<path d="M11.5494 12.7186L6.8009 22.9951H17.1119L12.1957 12.7137C12.0576 12.4398 11.6851 12.4423 11.5494 12.7186Z" fill="#683FEA"/>
<path d="M20.3827 0.00246681H2.10158C0.942208 0.00246681 -9.15527e-05 0.994101 -9.15527e-05 2.21761V20.7775C-9.15527e-05 22.001 0.942208 22.9951 2.10158 22.9951H2.29892C2.55546 22.9951 2.76267 22.7755 2.76267 22.5066V18.7695C2.76267 18.217 3.03648 17.7039 3.4879 17.4177L8.15499 14.4527V14.3146L3.4805 11.3175C3.03401 11.0313 2.76267 10.5207 2.76267 9.96815V6.38149C2.76267 5.09138 4.14899 4.34642 5.13815 5.10371L10.972 9.5636C11.4999 9.96815 12.2153 9.96321 12.7407 9.5562L17.5287 5.8314C18.5178 5.06178 19.914 5.80674 19.914 7.10178V11.0955C19.914 11.6505 19.6377 12.1636 19.1863 12.4497L15.3653 14.8671V15.0053L19.1863 17.4227C19.6377 17.7088 19.914 18.2219 19.914 18.7769V22.5116C19.914 22.7829 20.1212 23 20.3778 23C21.5396 23 22.4794 22.0084 22.4794 20.7824V2.21761C22.4794 0.994101 21.5371 0 20.3778 0L20.3827 0.00246681Z" fill="#683FEA"/>
</svg>
