<svg width="143" height="29" viewBox="0 0 143 29" fill="none" xmlns="http://www.w3.org/2000/svg">
<path d="M36.3621 23.3C34.8621 23.3 33.4721 23.03 32.1921 22.49C30.9121 21.93 29.7921 21.16 28.8321 20.18C27.8921 19.2 27.1621 18.06 26.6421 16.76C26.1221 15.46 25.8621 14.07 25.8621 12.59C25.8621 11.09 26.1221 9.69 26.6421 8.39C27.1621 7.09 27.8921 5.96 28.8321 5C29.7921 4.02 30.9021 3.26 32.1621 2.72C33.4421 2.16 34.8321 1.88 36.3321 1.88C37.9721 1.88 39.4121 2.16 40.6521 2.72C41.8921 3.28 42.9921 4.04 43.9521 5L42.0021 6.95C41.3421 6.21 40.5321 5.63 39.5721 5.21C38.6321 4.79 37.5521 4.58 36.3321 4.58C35.2321 4.58 34.2221 4.78 33.3021 5.18C32.3821 5.56 31.5821 6.11 30.9021 6.83C30.2221 7.55 29.6921 8.4 29.3121 9.38C28.9521 10.36 28.7721 11.43 28.7721 12.59C28.7721 13.75 28.9521 14.82 29.3121 15.8C29.6921 16.78 30.2221 17.63 30.9021 18.35C31.5821 19.07 32.3821 19.63 33.3021 20.03C34.2221 20.41 35.2321 20.6 36.3321 20.6C37.6321 20.6 38.7621 20.39 39.7221 19.97C40.6821 19.53 41.4921 18.94 42.1521 18.2L44.1021 20.12C43.1421 21.12 42.0121 21.9 40.7121 22.46C39.4321 23.02 37.9821 23.3 36.3621 23.3ZM52.6483 23.3C51.3483 23.3 50.1683 22.98 49.1083 22.34C48.0483 21.68 47.2083 20.79 46.5883 19.67C45.9883 18.55 45.6883 17.29 45.6883 15.89C45.6883 14.49 45.9883 13.23 46.5883 12.11C47.2083 10.99 48.0383 10.1 49.0783 9.44C50.1383 8.78 51.3283 8.45 52.6483 8.45C53.7283 8.45 54.6883 8.68 55.5283 9.14C56.3883 9.58 57.0783 10.2 57.5983 11C58.1183 11.78 58.4083 12.69 58.4683 13.73V18.02C58.4083 19.04 58.1183 19.95 57.5983 20.75C57.0983 21.55 56.4183 22.18 55.5583 22.64C54.7183 23.08 53.7483 23.3 52.6483 23.3ZM53.0983 20.75C54.4383 20.75 55.5183 20.3 56.3383 19.4C57.1583 18.48 57.5683 17.31 57.5683 15.89C57.5683 14.91 57.3783 14.06 56.9983 13.34C56.6383 12.6 56.1183 12.03 55.4383 11.63C54.7583 11.21 53.9683 11 53.0683 11C52.1683 11 51.3683 11.21 50.6683 11.63C49.9883 12.05 49.4483 12.63 49.0483 13.37C48.6683 14.09 48.4783 14.92 48.4783 15.86C48.4783 16.82 48.6683 17.67 49.0483 18.41C49.4483 19.13 49.9983 19.7 50.6983 20.12C51.3983 20.54 52.1983 20.75 53.0983 20.75ZM57.3883 23V19.16L57.8983 15.68L57.3883 12.23V8.75H60.1183V23H57.3883ZM71.5493 23.3C70.4693 23.3 69.4893 23.08 68.6093 22.64C67.7493 22.18 67.0593 21.55 66.5393 20.75C66.0193 19.95 65.7293 19.04 65.6693 18.02V13.73C65.7293 12.69 66.0193 11.78 66.5393 11C67.0793 10.2 67.7793 9.58 68.6393 9.14C69.5193 8.68 70.4893 8.45 71.5493 8.45C72.8493 8.45 74.0193 8.78 75.0593 9.44C76.1193 10.1 76.9493 10.99 77.5493 12.11C78.1493 13.23 78.4493 14.49 78.4493 15.89C78.4493 17.29 78.1493 18.55 77.5493 19.67C76.9493 20.79 76.1193 21.68 75.0593 22.34C74.0193 22.98 72.8493 23.3 71.5493 23.3ZM64.0493 28.97V8.75H66.7493V12.5L66.2393 15.95L66.7493 19.43V28.97H64.0493ZM71.0993 20.75C71.9993 20.75 72.7893 20.54 73.4693 20.12C74.1493 19.7 74.6893 19.13 75.0893 18.41C75.4893 17.67 75.6893 16.82 75.6893 15.86C75.6893 14.92 75.4893 14.08 75.0893 13.34C74.6893 12.6 74.1493 12.03 73.4693 11.63C72.7893 11.21 72.0093 11 71.1293 11C70.2293 11 69.4393 11.21 68.7593 11.63C68.0793 12.03 67.5493 12.6 67.1693 13.34C66.7893 14.08 66.5993 14.93 66.5993 15.89C66.5993 16.83 66.7793 17.67 67.1393 18.41C67.5193 19.13 68.0493 19.7 68.7293 20.12C69.4293 20.54 70.2193 20.75 71.0993 20.75ZM83.2608 23V2.78H85.9608V23H83.2608ZM79.7508 11.21V8.75H89.4708V11.21H79.7508ZM97.7362 23.3C96.4362 23.3 95.2562 22.98 94.1962 22.34C93.1362 21.68 92.2962 20.79 91.6762 19.67C91.0762 18.55 90.7762 17.29 90.7762 15.89C90.7762 14.49 91.0762 13.23 91.6762 12.11C92.2962 10.99 93.1262 10.1 94.1662 9.44C95.2262 8.78 96.4162 8.45 97.7362 8.45C98.8162 8.45 99.7762 8.68 100.616 9.14C101.476 9.58 102.166 10.2 102.686 11C103.206 11.78 103.496 12.69 103.556 13.73V18.02C103.496 19.04 103.206 19.95 102.686 20.75C102.186 21.55 101.506 22.18 100.646 22.64C99.8062 23.08 98.8362 23.3 97.7362 23.3ZM98.1862 20.75C99.5262 20.75 100.606 20.3 101.426 19.4C102.246 18.48 102.656 17.31 102.656 15.89C102.656 14.91 102.466 14.06 102.086 13.34C101.726 12.6 101.206 12.03 100.526 11.63C99.8462 11.21 99.0562 11 98.1562 11C97.2562 11 96.4562 11.21 95.7562 11.63C95.0762 12.05 94.5362 12.63 94.1362 13.37C93.7562 14.09 93.5662 14.92 93.5662 15.86C93.5662 16.82 93.7562 17.67 94.1362 18.41C94.5362 19.13 95.0862 19.7 95.7862 20.12C96.4862 20.54 97.2862 20.75 98.1862 20.75ZM102.476 23V19.16L102.986 15.68L102.476 12.23V8.75H105.206V23H102.476ZM109.167 23V8.75H111.867V23H109.167ZM110.517 5.9C110.017 5.9 109.607 5.74 109.287 5.42C108.967 5.08 108.807 4.66 108.807 4.16C108.807 3.68 108.967 3.28 109.287 2.96C109.607 2.62 110.017 2.45 110.517 2.45C111.017 2.45 111.427 2.62 111.747 2.96C112.067 3.28 112.227 3.68 112.227 4.16C112.227 4.66 112.067 5.08 111.747 5.42C111.427 5.74 111.017 5.9 110.517 5.9ZM125.926 23V14.69C125.926 13.61 125.586 12.72 124.906 12.02C124.226 11.32 123.346 10.97 122.266 10.97C121.546 10.97 120.906 11.13 120.346 11.45C119.786 11.77 119.346 12.21 119.026 12.77C118.706 13.33 118.546 13.97 118.546 14.69L117.436 14.06C117.436 12.98 117.676 12.02 118.156 11.18C118.636 10.34 119.306 9.68 120.166 9.2C121.026 8.7 121.996 8.45 123.076 8.45C124.156 8.45 125.106 8.72 125.926 9.26C126.766 9.8 127.426 10.51 127.906 11.39C128.386 12.25 128.626 13.17 128.626 14.15V23H125.926ZM115.846 23V8.75H118.546V23H115.846Z" fill="white"/>
<path d="M139.675 23L138.211 19.6123C138.03 19.2172 137.868 18.8611 137.72 18.5298C137.586 18.8487 137.433 19.2048 137.25 19.6176L135.865 23H132.715L136.144 15.4185L132.842 8H135.991L137.501 11.5826C137.596 11.8058 137.688 12.022 137.778 12.2364C137.867 12.0237 137.961 11.8058 138.063 11.5719L139.62 8H142.778L139.349 15.3299L142.833 23H139.676H139.675Z" fill="#683FEA"/>
<path d="M11.8545 12.7185L7.04994 22.995H17.4827L12.5084 12.7136C12.3686 12.4398 11.9918 12.4422 11.8545 12.7185Z" fill="url(#paint0_linear_1186_48967)"/>
<path d="M20.7921 0.00246681H2.29514C1.12208 0.00246681 0.168655 0.994101 0.168655 2.21761V20.7775C0.168655 22.001 1.12208 22.9951 2.29514 22.9951H2.49481C2.75438 22.9951 2.96403 22.7755 2.96403 22.5066V18.7695C2.96403 18.217 3.24108 17.7039 3.69782 17.4177L8.42001 14.4527V14.3146L3.69033 11.3175C3.23858 11.0313 2.96403 10.5207 2.96403 9.96815V6.38149C2.96403 5.09138 4.36671 4.34642 5.36756 5.10371L11.2703 9.5636C11.8044 9.96815 12.5282 9.96321 13.0598 9.5562L17.9043 5.8314C18.9052 5.06178 20.3178 5.80674 20.3178 7.10178V11.0955C20.3178 11.6505 20.0383 12.1636 19.5816 12.4497L15.7155 14.8671V15.0053L19.5816 17.4227C20.0383 17.7088 20.3178 18.2219 20.3178 18.7769V22.5116C20.3178 22.7829 20.5275 23 20.7871 23C21.9626 23 22.9136 22.0084 22.9136 20.7824V2.21761C22.9136 0.994101 21.9601 0 20.7871 0L20.7921 0.00246681Z" fill="url(#paint1_linear_1186_48967)"/>
<defs>
<linearGradient id="paint0_linear_1186_48967" x1="7.04994" y1="17.7532" x2="17.4827" y2="17.7532" gradientUnits="userSpaceOnUse">
<stop stop-color="#683FEA"/>
<stop offset="1" stop-color="#100472"/>
</linearGradient>
<linearGradient id="paint1_linear_1186_48967" x1="0.168655" y1="11.4975" x2="43.5903" y2="13.9487" gradientUnits="userSpaceOnUse">
<stop stop-color="#683FEA"/>
<stop offset="1" stop-color="#100472"/>
</linearGradient>
</defs>
</svg>
