<svg width="40" height="40" viewBox="0 0 40 40" fill="none" xmlns="http://www.w3.org/2000/svg">
<rect y="40" width="40" height="40" rx="20" transform="rotate(-90 0 40)" fill="white"/>
<path d="M15.148 13.6674C15.1477 14.1094 14.9817 14.5332 14.6864 14.8456C14.3911 15.158 13.9906 15.3334 13.5732 15.3331C13.1557 15.3329 12.7555 15.1571 12.4605 14.8444C12.1654 14.5317 11.9998 14.1077 12 13.6657C12.0002 13.2237 12.1662 12.7999 12.4616 12.4875C12.7569 12.1752 13.1573 11.9998 13.5748 12C13.9922 12.0002 14.3925 12.176 14.6875 12.4887C14.9825 12.8014 15.1482 13.2254 15.148 13.6674ZM15.1952 16.5672H12.0472V27H15.1952V16.5672ZM20.1689 16.5672H17.0367V27H20.1375V21.5253C20.1375 18.4755 23.8914 18.1922 23.8914 21.5253V27H27V20.392C27 15.2507 21.4439 15.4423 20.1375 17.9672L20.1689 16.5672Z" fill="black"/>
</svg>
