<svg width="101" height="38" viewBox="0 0 101 38" fill="none" xmlns="http://www.w3.org/2000/svg">
<path d="M32.0704 25.353C29.9598 25.353 28.2787 23.7093 28.2787 21.5613H24.9167C24.9167 25.5398 28.0733 28.5843 32.0704 28.5843C36.0675 28.5843 39.2241 25.5398 39.2241 21.5613H35.8621C35.8621 23.6906 34.181 25.353 32.0704 25.353ZM39.0934 10.0369V7.40328H34.4425C33.6954 7.14179 32.8922 6.99236 32.0704 6.99236C28.0733 6.99236 24.9167 10.0369 24.9167 14.0153C24.9167 17.9938 28.0733 21.0383 32.0704 21.0383C36.0675 21.0383 39.2241 17.9938 39.2241 14.0153C39.2241 12.6705 38.8693 11.363 38.1408 10.3731L39.0934 10.0369ZM32.0704 17.8257C29.9598 17.8257 28.2787 16.1447 28.2787 13.978C28.2787 11.83 29.9598 10.1863 32.0704 10.1863C34.2184 10.1863 35.8994 11.83 35.8994 14.0153C35.8994 16.182 34.2184 17.8257 32.0704 17.8257ZM4.875 20.6461H8.18103V1.78115H4.875V20.6461ZM16.6236 6.99236C12.6264 6.99236 9.46983 10.0369 9.46983 14.0153C9.46983 17.9938 12.6264 21.0383 16.6236 21.0383C20.6207 21.0383 23.7773 17.9938 23.7773 14.0153C23.7773 10.0369 20.6207 6.99236 16.6236 6.99236ZM16.6236 17.8257C14.5129 17.8257 12.8319 16.1447 12.8319 13.978C12.8319 11.83 14.5129 10.1863 16.6236 10.1863C18.7716 10.1863 20.4526 11.83 20.4526 14.0153C20.4526 16.182 18.7716 17.8257 16.6236 17.8257ZM40.5503 20.6461H43.8563V7.3846H40.5503V20.6461ZM74.6193 10.1863C76.0201 10.1863 77.1595 10.9148 78.0374 11.9234L80.3348 9.64466C79.046 8.01966 77.0101 6.99236 74.6753 6.99236C70.6782 6.99236 67.5216 10.0369 67.5216 14.0153C67.5216 17.9938 70.6782 21.0383 74.6753 21.0383C76.9914 21.0383 79.046 20.011 80.3348 18.386L78.0374 16.1073C77.1782 17.0972 76.0201 17.8444 74.6006 17.8444C72.4899 17.8444 70.8463 16.182 70.8463 14.0153C70.8463 11.8487 72.4713 10.1863 74.6193 10.1863ZM95.1839 5.85299C95.1839 5.5915 94.9971 5.49811 94.7356 5.49811H94.3247V6.69351H94.4741V6.22656H94.7356L95.0158 6.69351H95.2026L94.8851 6.20788C95.0718 6.15184 95.1839 6.05845 95.1839 5.85299ZM94.4741 6.05845V5.64753H94.7356C94.9411 5.64753 95.0158 5.72225 95.0158 5.85299C95.0158 5.98374 94.9411 6.05845 94.7356 6.05845H94.4741ZM88.8707 6.99236C87.2457 6.99236 85.8448 7.60874 84.8736 8.6734V1.79983H81.5675V20.6648H84.8736V13.455C84.8736 11.5498 86.0876 10.2237 88.1049 10.2237C89.9914 10.2237 91.0187 11.3817 91.0187 13.455V20.6648H94.3247V12.8573C94.3247 9.17771 92.0273 6.99236 88.8707 6.99236ZM59.602 6.99236C55.6236 6.99236 52.5977 10.0369 52.5977 14.0901C52.5977 18.0872 55.3621 21.0383 59.658 21.0383C62.0302 21.0383 64.1595 20.1605 65.7098 18.4981L63.4871 16.2941C62.4037 17.3214 61.2457 18.0685 59.7328 18.0685C57.921 18.0685 56.5575 17.0412 56.0905 15.3041H66.4009V14.501C66.4009 9.99954 63.6178 6.99236 59.602 6.99236ZM56.0158 12.6332C56.4641 10.8774 57.7902 9.88748 59.5273 9.88748C61.2644 9.88748 62.5532 10.8401 62.9641 12.6332H56.0158ZM94.7356 4.93776C94.0819 4.93776 93.5776 5.46075 93.5776 6.07713C93.5776 6.73087 94.1006 7.23518 94.7356 7.23518C95.352 7.23518 95.875 6.71219 95.875 6.07713C95.875 5.46075 95.352 4.93776 94.7356 4.93776ZM94.7356 7.08575C94.1753 7.08575 93.727 6.63748 93.727 6.07713C93.727 5.53546 94.1753 5.08719 94.7356 5.08719C95.2773 5.08719 95.7256 5.53546 95.7256 6.07713C95.7256 6.65615 95.2773 7.08575 94.7356 7.08575ZM42.1753 1.42627C40.9612 1.42627 40.0086 2.37886 40.0086 3.63029C40.0086 4.84437 40.9612 5.79696 42.1753 5.79696C43.4454 5.79696 44.398 4.84437 44.398 3.63029C44.398 2.37886 43.4267 1.42627 42.1753 1.42627ZM50.3563 3.31276H47.0503V7.3846H45.2759V10.3357H47.0503V20.6461H50.3563V10.3357H52.1681V7.3846H50.3563V3.31276Z" fill="#9E9E9E"/>
</svg>
