<svg width="102" height="33" viewBox="0 0 102 33" fill="none" xmlns="http://www.w3.org/2000/svg">
<path d="M36.488 10.2615C36.488 9.81303 36.1516 9.45801 35.6658 9.45801C35.18 9.45801 34.8438 9.81303 34.8438 10.2615V16.7639C34.8438 17.2123 35.18 17.5673 35.6658 17.5673C36.1516 17.5673 36.488 17.2123 36.488 16.7639V10.2615Z" fill="#9E9E9E"/>
<path d="M44.5216 9.45801C44.0545 9.45801 43.7182 9.81303 43.7182 10.2615V13.0455L43.7556 15.5307L42.7652 13.2137L41.476 10.5791C41.0836 9.75697 40.6351 9.47669 39.9812 9.47669C39.0282 9.47669 38.6172 10.0746 38.6172 10.9341V16.7826C38.6172 17.231 38.9535 17.586 39.4206 17.586C39.8877 17.586 40.2241 17.231 40.2241 16.7826L40.2054 14.0359L40.168 11.2331L41.2144 13.8116L42.5223 16.5023C42.9334 17.3618 43.3632 17.6047 44.0171 17.6047C44.858 17.6047 45.3064 17.0815 45.3064 16.1286V10.2988C45.3251 9.81302 44.9888 9.45801 44.5216 9.45801Z" fill="#9E9E9E"/>
<path d="M51.3227 11.1198L53.1725 11.1572C53.6023 11.1759 53.9386 10.8396 53.9386 10.3724C53.9386 9.90531 53.6023 9.56898 53.1725 9.56898L47.8286 9.55029C47.4175 9.55029 47.0625 9.88663 47.0625 10.3538C47.0625 10.8209 47.4175 11.1572 47.8286 11.1385L49.6784 11.1012V16.7441C49.6784 17.1925 50.0148 17.5475 50.5006 17.5475C50.9864 17.5475 51.3227 17.1925 51.3227 16.7441V11.1198Z" fill="#9E9E9E"/>
<path d="M56.7969 17.4549H60.7768C61.1879 17.4549 61.5429 17.1373 61.5429 16.7075C61.5429 16.2591 61.2066 15.9414 60.7768 15.9414L57.3201 15.9601V14.0729H60.3097C60.7208 14.0729 61.0384 13.774 61.0384 13.3442C61.0384 12.9145 60.7021 12.6155 60.3097 12.6155L57.3201 12.6342V11.0833H60.7768C61.1879 11.0833 61.5429 10.7657 61.5429 10.3172C61.5429 9.86879 61.2066 9.56982 60.7768 9.56982L56.8156 9.58851C56.0869 9.58851 55.6758 9.99958 55.6758 10.7096V16.3525C55.6758 17.0439 56.0869 17.4549 56.7969 17.4549Z" fill="#9E9E9E"/>
<path d="M67.9885 14.2403C69.0722 13.96 69.6888 13.1191 69.6888 12.0167C69.6888 10.7835 68.8854 9.55029 66.9608 9.55029H64.4757C63.747 9.55029 63.3359 9.96137 63.3359 10.6714V16.7441C63.3359 17.1925 63.6722 17.5475 64.1767 17.5475C64.6625 17.5475 65.0175 17.1925 65.0175 16.7441L64.9989 14.614H66.3629L67.7643 17.1178C67.9885 17.5101 68.4743 17.6596 68.904 17.4354C69.3525 17.1925 69.4646 16.7254 69.2404 16.333L67.9885 14.2403ZM65.0175 11.0638H66.9795C67.6521 11.0638 68.0632 11.4749 68.0632 12.1102C68.0632 12.7268 67.6708 13.1752 66.9982 13.1752H64.9989V11.0638H65.0175Z" fill="#9E9E9E"/>
<path d="M74.6986 17.6039C76.3429 17.6039 77.4079 16.8565 77.7816 15.6419C77.9685 14.9506 77.5574 14.4648 76.9595 14.4648C76.5858 14.4648 76.3429 14.6516 76.1934 15.0814C75.9692 15.7167 75.4086 16.1091 74.6238 16.1091C73.3719 16.1091 72.8301 15.2682 72.8301 13.4931C72.8301 11.7741 73.3906 10.9333 74.6238 10.9333C75.4086 10.9333 75.8571 11.2696 76.1373 12.017C76.2868 12.4468 76.5484 12.6336 76.9408 12.6336C77.52 12.6336 77.9685 12.1665 77.7816 11.5125C77.4266 10.1859 76.3616 9.43848 74.6612 9.43848C72.3256 9.43848 71.1484 10.8585 71.1484 13.4931C71.1484 16.1464 72.3256 17.6039 74.6986 17.6039Z" fill="#9E9E9E"/>
<path d="M82.7524 17.5889C85.1441 17.5889 86.34 16.1127 86.34 13.4968C86.34 10.8622 85.1254 9.40479 82.7524 9.40479C80.3794 9.40479 79.1836 10.8809 79.1836 13.4968C79.1836 16.1314 80.3981 17.5889 82.7524 17.5889ZM82.7524 16.0754C81.4258 16.0754 80.8466 15.2345 80.8466 13.4968C80.8466 11.7404 81.4258 10.8996 82.7524 10.8996C84.0791 10.8996 84.6957 11.7404 84.6957 13.4968C84.677 15.2345 84.0978 16.0754 82.7524 16.0754Z" fill="#9E9E9E"/>
<path d="M96.8749 10.8585C96.8749 9.96166 96.3144 9.43848 95.4548 9.43848C94.7448 9.43848 94.2216 9.83086 93.96 10.7091L93.0818 13.5492L92.5026 15.5859L91.942 13.5492L91.0078 10.7091C90.7462 9.88692 90.2978 9.43848 89.4943 9.43848C88.6161 9.43848 88.0742 9.96166 88.0742 10.8585V16.7443C88.0742 17.1928 88.3919 17.5478 88.859 17.5478C89.3261 17.5478 89.6438 17.1928 89.6438 16.7443L89.6251 13.9042L89.5503 10.8585L90.4472 13.979L91.4002 16.7257C91.6057 17.3423 91.9794 17.5291 92.4839 17.5291C92.951 17.5291 93.3247 17.361 93.5116 16.7443L94.4085 13.9603L95.3614 10.8212L95.268 13.8855V16.7257C95.268 17.1741 95.6043 17.5291 96.0528 17.5291C96.5199 17.5291 96.8375 17.1741 96.8375 16.7257L96.8749 10.8585Z" fill="#9E9E9E"/>
<path d="M23.0528 14.5595C23.0528 14.7464 22.978 14.9332 22.8472 15.064C22.7164 15.1948 22.5296 15.2695 22.3427 15.2695C22.1559 15.2695 21.969 15.1948 21.8382 15.064C21.7074 14.9332 21.6327 14.7464 21.6327 14.5595V8.22526C21.6327 8.0384 21.7074 7.85155 21.8382 7.72075C21.969 7.58996 22.1559 7.51522 22.3427 7.51522C22.5296 7.51522 22.7164 7.58996 22.8472 7.72075C22.978 7.85155 23.0528 8.0384 23.0528 8.22526V14.5595ZM22.8098 18.9505C22.7164 19.0439 20.1005 21.2488 15.2984 21.2488C10.4963 21.2488 7.89913 19.0626 7.78701 18.9692C7.71227 18.9131 7.65622 18.8384 7.61885 18.7636C7.58148 18.6889 7.54411 18.5955 7.54411 18.5021C7.54411 18.4086 7.54411 18.3152 7.58148 18.2218C7.60016 18.1284 7.65622 18.0536 7.71227 17.9789C7.84307 17.8294 8.01124 17.7546 8.19809 17.736C8.38494 17.7173 8.57179 17.7733 8.70258 17.9041C8.73995 17.9415 11.0756 19.8474 15.2984 19.8474C19.5213 19.8474 21.8756 17.9228 21.8943 17.9041C22.0438 17.792 22.2119 17.7173 22.3988 17.736C22.5856 17.7546 22.7538 17.8294 22.8846 17.9789C22.9967 18.1097 23.0714 18.2965 23.0528 18.4834C23.0341 18.6702 22.9593 18.8384 22.8098 18.9505ZM7.54411 8.22526C7.56279 8.0384 7.63753 7.85155 7.78701 7.73944C7.91781 7.60864 8.10466 7.55259 8.29151 7.55259C8.45968 7.57127 8.62784 7.64601 8.75864 7.75812C8.88944 7.88892 8.94549 8.0571 8.96418 8.22526V14.5408C8.96418 14.7277 8.88944 14.9145 8.75864 15.0453C8.62784 15.1761 8.44099 15.2508 8.25414 15.2508C8.06729 15.2508 7.88044 15.1761 7.74964 15.0453C7.61885 14.9145 7.54411 14.7277 7.54411 14.5408V8.22526ZM11.0756 6.82387C11.0943 6.63702 11.169 6.45017 11.3185 6.33806C11.4493 6.20726 11.6362 6.15121 11.823 6.15121C11.9912 6.16989 12.1593 6.24463 12.2901 6.35674C12.4209 6.48754 12.477 6.6557 12.4957 6.82387V16.2038C12.4957 16.3906 12.4209 16.5775 12.2901 16.7083C12.1593 16.8391 11.9725 16.9138 11.7856 16.9138C11.5988 16.9138 11.4119 16.8391 11.2811 16.7083C11.1504 16.5775 11.0756 16.3906 11.0756 16.2038V6.82387ZM14.6258 6.46885C14.6258 6.282 14.7005 6.09516 14.8313 5.96437C14.9621 5.83356 15.149 5.75882 15.3358 5.75882C15.5227 5.75882 15.7095 5.83356 15.8403 5.96437C15.9711 6.09516 16.0458 6.282 16.0458 6.46885V16.6709C16.0458 16.8578 15.9711 17.0446 15.8403 17.1754C15.7095 17.3062 15.5227 17.3809 15.3358 17.3809C15.149 17.3809 14.9621 17.3062 14.8313 17.1754C14.7005 17.0446 14.6258 16.8578 14.6258 16.6709V6.46885ZM18.1199 6.82387C18.1199 6.63702 18.1946 6.45017 18.3254 6.31937C18.4562 6.18858 18.6431 6.11384 18.8299 6.11384C19.0168 6.11384 19.2036 6.18858 19.3344 6.31937C19.4652 6.45017 19.54 6.63702 19.54 6.82387V16.2038C19.54 16.3906 19.4652 16.5775 19.3344 16.7083C19.2036 16.8391 19.0168 16.9138 18.8299 16.9138C18.6431 16.9138 18.4562 16.8391 18.3254 16.7083C18.1946 16.5775 18.1199 16.3906 18.1199 16.2038V6.82387ZM23.2396 2.95605H7.37594C7.02093 2.95605 6.68459 3.01211 6.36695 3.14291C6.0493 3.2737 5.75034 3.46055 5.50743 3.72214C5.26453 3.96505 5.05899 4.26401 4.9282 4.58166C4.7974 4.8993 4.72266 5.25432 4.72266 5.59065V21.4169C4.72266 21.7719 4.7974 22.1083 4.9282 22.4259C5.05899 22.7436 5.26453 23.0425 5.50743 23.2854C5.75034 23.5283 6.0493 23.7152 6.36695 23.8647C6.68459 23.9955 7.02093 24.0702 7.37594 24.0515H23.2396C23.5759 24.0515 23.931 23.9955 24.2486 23.8647C24.5662 23.7339 24.8652 23.547 25.1081 23.3041C25.351 23.0612 25.5566 22.7623 25.6874 22.4446C25.8181 22.127 25.8929 21.7719 25.8929 21.4356V5.60934C25.8929 5.25432 25.8181 4.91799 25.6874 4.60034C25.5566 4.2827 25.351 3.98373 25.1081 3.74083C24.8652 3.49792 24.5662 3.31107 24.2486 3.16159C23.9496 3.01211 23.5946 2.95605 23.2396 2.95605Z" fill="#9E9E9E"/>
</svg>
