<svg width="121" height="36" viewBox="0 0 121 36" fill="none" xmlns="http://www.w3.org/2000/svg">
<path d="M13.027 2.8851C11.9307 1.59612 10.9867 0.287 10.7939 0.0151053C10.7736 -0.00503509 10.7431 -0.00503509 10.7228 0.0151053C10.5299 0.287 9.58594 1.59612 8.48969 2.8851C-0.919714 14.7779 9.97166 22.8039 9.97166 22.8039L10.063 22.8643C10.1442 24.1029 10.3472 25.8853 10.3472 25.8853H10.7533H11.1593C11.1593 25.8853 11.3623 24.113 11.4435 22.8643L11.5348 22.7938C11.545 22.8039 22.4364 14.7779 13.027 2.8851ZM10.7533 22.6327C10.7533 22.6327 10.266 22.2198 10.1341 22.0083V21.9882L10.7228 9.03796C10.7228 8.99768 10.7837 8.99768 10.7837 9.03796L11.3724 21.9882V22.0083C11.2405 22.2198 10.7533 22.6327 10.7533 22.6327Z" fill="#9E9E9E"/>
<path d="M31.1347 19.9005L26.5962 8.9935L26.586 8.96338H23.0549V9.69653H23.6247C23.7977 9.69653 23.9605 9.76684 24.0827 9.88735C24.2048 10.0079 24.2658 10.1686 24.2658 10.3393L24.1641 21.3165C24.1641 21.658 23.8792 21.9392 23.5332 21.9493L22.9531 21.9593V22.6824H26.3927V21.9593L26.0365 21.9493C25.6905 21.9392 25.4056 21.658 25.4056 21.3165V10.9721L30.3512 22.6824C30.4224 22.8531 30.5852 22.9636 30.7685 22.9636C30.9516 22.9636 31.1144 22.8531 31.1857 22.6824L36.0193 11.2331L36.0906 21.3165C36.0906 21.668 35.8056 21.9493 35.4495 21.9593H35.0831V22.6824H39.1129V21.9593H38.5633C38.2174 21.9593 37.9324 21.668 37.9222 21.3266L37.8917 10.3493C37.8917 9.99783 38.1766 9.71662 38.5227 9.70658L39.1129 9.69653V8.96338H35.6733L31.1347 19.9005Z" fill="#9E9E9E"/>
<path d="M62.7826 21.769C62.6703 21.6586 62.6091 21.5082 62.6091 21.3277V15.9507C62.6091 14.9274 62.3031 14.1249 61.6908 13.5531C61.089 12.9813 60.2523 12.6904 59.2117 12.6904C57.7526 12.6904 56.5998 13.2723 55.7938 14.4159C55.7836 14.4359 55.753 14.446 55.7224 14.446C55.6917 14.446 55.6714 14.4259 55.6714 14.3958L55.2938 12.9613H54.6613L53.0391 13.8742V14.3757H53.4574C53.6512 14.3757 53.8144 14.4259 53.9268 14.5262C54.039 14.6265 54.1001 14.777 54.1001 14.9877V21.3176C54.1001 21.4982 54.039 21.6487 53.9268 21.759C53.8144 21.8694 53.6615 21.9295 53.4778 21.9295H53.0697V22.6618H56.8038V21.9295H56.3957C56.2121 21.9295 56.059 21.8694 55.9468 21.759C55.8346 21.6487 55.7733 21.4982 55.7733 21.3176V17.1244C55.7733 16.5927 55.8958 16.0611 56.1203 15.5394C56.3549 15.0278 56.7018 14.5965 57.1609 14.2654C57.62 13.9343 58.171 13.7739 58.8035 13.7739C59.5177 13.7739 60.0585 13.9946 60.3951 14.4359C60.7318 14.8773 60.9053 15.4491 60.9053 16.1313V21.3075C60.9053 21.4881 60.844 21.6386 60.7318 21.749C60.6196 21.8593 60.4666 21.9195 60.2829 21.9195H59.8748V22.6518H63.609V21.9195H63.2009C63.0478 21.9396 62.9049 21.8793 62.7826 21.769Z" fill="#9E9E9E"/>
<path d="M96.8972 9.7905C95.865 9.24581 94.7114 8.96338 93.4667 8.96338H88.6094V9.69972H89.0851C89.2672 9.69972 89.4291 9.77033 89.591 9.93172C89.7428 10.083 89.8237 10.2545 89.8237 10.436V21.2895C89.8237 21.471 89.7428 21.6426 89.591 21.7938C89.4393 21.9451 89.2672 22.0258 89.0851 22.0258H88.6094V22.7622H93.4667C94.7114 22.7622 95.865 22.4798 96.8972 21.9351C97.9293 21.3904 98.7693 20.5834 99.3765 19.5546C99.9836 18.5257 100.297 17.2851 100.297 15.8729C100.297 14.4607 99.9836 13.2301 99.3765 12.1912C98.7591 11.1422 97.9293 10.3352 96.8972 9.7905ZM98.3443 15.8527C98.3443 17.1439 98.1115 18.2332 97.6561 19.1107C97.2008 19.9883 96.5935 20.6439 95.8447 21.0675C95.096 21.4913 94.2661 21.7031 93.3756 21.7031H92.394C92.2119 21.7031 92.05 21.6325 91.8881 21.471C91.7363 21.3198 91.6554 21.1483 91.6554 20.9667V10.7286C91.6554 10.547 91.7262 10.3857 91.8881 10.2242C92.0399 10.0729 92.2119 9.99224 92.394 9.99224H93.3756C94.2661 9.99224 95.096 10.2041 95.8447 10.6277C96.5935 11.0513 97.2008 11.707 97.6561 12.5846C98.1115 13.4621 98.3443 14.5616 98.3443 15.8527Z" fill="#9E9E9E"/>
<path d="M111.778 16.5891C111.328 16.0746 110.461 15.6409 109.442 15.4088C110.85 14.7128 111.573 13.7344 111.573 12.4736C111.573 11.7877 111.39 11.1724 111.022 10.6478C110.656 10.1234 110.135 9.69971 109.473 9.4072C108.809 9.11468 108.033 8.96338 107.156 8.96338H101.658V9.69972H102.097C102.28 9.69972 102.444 9.77033 102.607 9.93171C102.76 10.083 102.841 10.2545 102.841 10.436V21.2895C102.841 21.471 102.76 21.6426 102.607 21.7938C102.454 21.9451 102.28 22.0258 102.097 22.0258H101.617V22.7622H107.585C108.493 22.7622 109.339 22.6109 110.105 22.3082C110.87 22.0057 111.482 21.5619 111.921 20.9768C112.369 20.3918 112.594 19.6756 112.594 18.8485C112.583 17.9608 112.318 17.2043 111.778 16.5891ZM104.933 21.4811C104.78 21.3298 104.698 21.1584 104.698 20.9768V16.1049H107.534C108.533 16.1049 109.299 16.357 109.829 16.8613C110.36 17.3657 110.625 18.0213 110.625 18.8283C110.625 19.3125 110.502 19.7866 110.278 20.2203C110.044 20.6642 109.696 21.0172 109.228 21.2895C108.768 21.5619 108.197 21.7031 107.534 21.7031H105.443C105.259 21.7132 105.096 21.6325 104.933 21.4811ZM104.708 15.0659V10.7387C104.708 10.5571 104.78 10.3957 104.943 10.2343C105.096 10.083 105.269 10.0023 105.453 10.0023H106.8C107.768 10.0023 108.483 10.2445 108.932 10.7084C109.38 11.1825 109.605 11.7877 109.605 12.5341C109.605 13.3007 109.39 13.916 108.972 14.3801C108.554 14.8339 107.922 15.0659 107.085 15.0659H104.708Z" fill="#9E9E9E"/>
<path d="M48.5639 13.3337C47.7844 12.9116 46.9138 12.6904 45.9723 12.6904C45.0309 12.6904 44.1501 12.9015 43.3808 13.3337C42.6013 13.756 41.9837 14.3692 41.5282 15.1432C41.0727 15.9172 40.8398 16.822 40.8398 17.8272C40.8398 18.8324 41.0727 19.7372 41.5282 20.5112C41.9837 21.2853 42.6013 21.8985 43.3808 22.3207C44.1603 22.7428 45.0309 22.964 45.9723 22.964C46.9138 22.964 47.7945 22.7529 48.5639 22.3207C49.3434 21.8985 49.9609 21.2853 50.4165 20.5112C50.872 19.7372 51.1048 18.8324 51.1048 17.8272C51.1048 16.822 50.872 15.9172 50.4165 15.1432C49.9609 14.3692 49.3434 13.766 48.5639 13.3337ZM49.313 17.8272C49.313 19.0637 49.0093 20.0689 48.4019 20.7926C47.8047 21.5164 46.9847 21.8884 45.9723 21.8884C44.9601 21.8884 44.14 21.5164 43.5428 20.7926C42.9353 20.0689 42.6316 19.0637 42.6316 17.8272C42.6316 16.5908 42.9353 15.5856 43.5428 14.8618C44.14 14.138 44.9601 13.766 45.9723 13.766C46.9847 13.766 47.8047 14.138 48.4019 14.8618C49.0093 15.5955 49.313 16.5908 49.313 17.8272Z" fill="#9E9E9E"/>
<path d="M84.4427 13.3337C83.6632 12.9116 82.7926 12.6904 81.8512 12.6904C80.9098 12.6904 80.0291 12.9015 79.2597 13.3337C78.4802 13.756 77.8627 14.3692 77.4072 15.1432C76.9516 15.9172 76.7188 16.822 76.7188 17.8272C76.7188 18.8324 76.9516 19.7372 77.4072 20.5112C77.8627 21.2853 78.4802 21.8985 79.2597 22.3207C80.0393 22.7428 80.9098 22.964 81.8512 22.964C82.7926 22.964 83.6734 22.7529 84.4427 22.3207C85.2223 21.8985 85.8398 21.2853 86.2953 20.5112C86.7508 19.7372 86.9837 18.8324 86.9837 17.8272C86.9837 16.822 86.7508 15.9172 86.2953 15.1432C85.8398 14.3692 85.2121 13.766 84.4427 13.3337ZM85.192 17.8272C85.192 19.0637 84.8882 20.0689 84.2808 20.7926C83.6835 21.5164 82.8635 21.8884 81.8512 21.8884C80.8388 21.8884 80.0189 21.5164 79.4217 20.7926C78.8143 20.0689 78.5106 19.0637 78.5106 17.8272C78.5106 16.5807 78.8143 15.5856 79.4217 14.8618C80.0189 14.138 80.8388 13.766 81.8512 13.766C82.8635 13.766 83.6835 14.138 84.2808 14.8618C84.8781 15.5955 85.192 16.5908 85.192 17.8272Z" fill="#9E9E9E"/>
<path d="M69.9744 12.6904C69.1587 12.6904 68.4145 12.8621 67.7416 13.2054C67.0687 13.5488 66.5386 14.0134 66.1613 14.6092C65.7841 15.1949 65.5904 15.8514 65.5904 16.5482C65.5904 17.1742 65.7331 17.7499 66.0288 18.2649C66.3142 18.7598 66.7017 19.1738 67.191 19.5171L65.7331 21.4763C65.5496 21.7187 65.5292 22.0418 65.6618 22.3044C65.8045 22.577 66.0695 22.7387 66.3754 22.7387H66.7934C66.3856 23.0113 66.0593 23.3344 65.835 23.7182C65.57 24.1525 65.4375 24.6069 65.4375 25.0714C65.4375 25.9399 65.8249 26.6569 66.5895 27.1922C67.344 27.7274 68.4042 28 69.7398 28C70.6676 28 71.5546 27.8486 72.36 27.5557C73.1756 27.2629 73.8383 26.8286 74.3276 26.2631C74.8273 25.6976 75.0822 25.0108 75.0822 24.2231C75.0822 23.3951 74.7762 22.8093 74.0626 22.2438C73.4509 21.7691 72.4925 21.5167 71.2997 21.5167H67.2216C67.2115 21.5167 67.2012 21.5066 67.2012 21.5066C67.2012 21.5066 67.191 21.4864 67.2012 21.4763L68.2615 20.0625C68.547 20.1938 68.8121 20.2745 69.0466 20.325C69.2912 20.3756 69.5665 20.3957 69.8723 20.3957C70.7288 20.3957 71.5037 20.2241 72.1765 19.8807C72.8494 19.5374 73.3898 19.0728 73.7772 18.477C74.1645 17.8913 74.3582 17.2349 74.3582 16.5381C74.3582 15.7907 73.9912 14.4274 72.9921 13.7306C72.9921 13.7205 73.0023 13.7205 73.0023 13.7205L75.1943 13.9628V12.9631H71.6871C71.1366 12.7813 70.5657 12.6904 69.9744 12.6904ZM71.1977 19.0021C70.8103 19.2041 70.3923 19.3152 69.9744 19.3152C69.2913 19.3152 68.6897 19.0728 68.1799 18.5981C67.6702 18.1235 67.4153 17.4267 67.4153 16.5381C67.4153 15.6493 67.6702 14.9525 68.1799 14.4779C68.6897 14.0032 69.2913 13.7609 69.9744 13.7609C70.4026 13.7609 70.8103 13.8619 71.1977 14.0739C71.5852 14.2759 71.9012 14.589 72.1561 15.003C72.4008 15.4171 72.5333 15.9321 72.5333 16.5381C72.5333 17.1541 72.4109 17.6691 72.1561 18.0731C71.9114 18.487 71.5852 18.8002 71.1977 19.0021ZM68.4348 22.7285H71.1977C71.9624 22.7285 72.4518 22.88 72.778 23.2032C73.1043 23.5263 73.2674 23.9605 73.2674 24.4655C73.2674 25.2027 72.9717 25.8087 72.3804 26.2631C71.789 26.7176 70.9939 26.9498 70.0151 26.9498C69.1587 26.9498 68.445 26.758 67.925 26.3944C67.4051 26.0309 67.14 25.4754 67.14 24.7685C67.14 24.3241 67.2624 23.9101 67.5071 23.5466C67.7518 23.183 68.0474 22.9204 68.4348 22.7285Z" fill="#9E9E9E"/>
<path d="M114.662 22.5937C114.461 22.4846 114.309 22.3259 114.188 22.1376C114.077 21.9394 114.016 21.7312 114.016 21.5032C114.016 21.2751 114.077 21.0571 114.188 20.8687C114.299 20.6704 114.461 20.5217 114.662 20.4126C114.864 20.3037 115.086 20.2441 115.338 20.2441C115.59 20.2441 115.811 20.3037 116.014 20.4126C116.215 20.5217 116.366 20.6804 116.487 20.8687C116.598 21.0669 116.659 21.2751 116.659 21.5032C116.659 21.7312 116.598 21.9492 116.487 22.1376C116.376 22.3359 116.215 22.4846 116.014 22.5937C115.811 22.7026 115.59 22.7622 115.338 22.7622C115.096 22.7622 114.864 22.7026 114.662 22.5937ZM115.903 22.4449C116.073 22.3558 116.195 22.217 116.296 22.0583C116.387 21.8898 116.437 21.7014 116.437 21.4933C116.437 21.2851 116.387 21.0967 116.296 20.9281C116.205 20.7596 116.073 20.6308 115.903 20.5416C115.731 20.4523 115.549 20.4028 115.338 20.4028C115.126 20.4028 114.944 20.4523 114.773 20.5416C114.602 20.6308 114.48 20.7696 114.379 20.9281C114.289 21.0967 114.238 21.2851 114.238 21.4933C114.238 21.7014 114.289 21.8898 114.379 22.0583C114.471 22.2268 114.602 22.3558 114.773 22.4449C114.944 22.5341 115.126 22.5837 115.338 22.5837C115.549 22.5837 115.741 22.5341 115.903 22.4449ZM114.793 22.098V22.0088L114.813 21.9988H114.874C114.894 21.9988 114.914 21.9889 114.924 21.979C114.944 21.9592 114.944 21.9492 114.944 21.9294V21.0075C114.944 20.9877 114.934 20.9678 114.924 20.958C114.904 20.9381 114.894 20.9381 114.874 20.9381H114.813L114.793 20.9281V20.839L114.813 20.829H115.338C115.489 20.829 115.6 20.8587 115.69 20.9281C115.782 20.9975 115.821 21.0868 115.821 21.2057C115.821 21.295 115.792 21.3842 115.721 21.4436C115.651 21.513 115.569 21.5527 115.469 21.5627L115.59 21.6023L115.821 21.9691C115.842 21.9988 115.862 22.0088 115.893 22.0088H115.953L115.963 22.0186V22.1079L115.953 22.1178H115.641L115.62 22.1079L115.297 21.5726H115.217V21.9294C115.217 21.9492 115.227 21.9691 115.237 21.979C115.257 21.9988 115.268 21.9988 115.287 21.9988H115.348L115.368 22.0088V22.098L115.348 22.1079H114.813L114.793 22.098ZM115.307 21.4536C115.388 21.4536 115.459 21.4338 115.499 21.3842C115.539 21.3445 115.569 21.2751 115.569 21.1959C115.569 21.1165 115.549 21.0571 115.509 21.0075C115.469 20.958 115.408 20.9381 115.338 20.9381H115.297C115.277 20.9381 115.257 20.948 115.247 20.958C115.227 20.9777 115.227 20.9877 115.227 21.0075V21.4536H115.307Z" fill="#9E9E9E"/>
</svg>
