<svg width="65" height="36" viewBox="0 0 65 36" fill="none" xmlns="http://www.w3.org/2000/svg">
<path d="M52.7519 25.3009V24.7144H53.1774C53.4649 24.7144 53.5454 24.8064 53.5454 24.9789C53.5454 25.1514 53.4649 25.2894 53.1314 25.3009M53.0509 25.6574C53.1774 25.6689 53.2924 25.6574 53.3844 25.7494C53.4879 25.8529 53.4879 26.0369 53.5109 26.2324C53.5224 26.3704 53.5684 26.5084 53.5914 26.6349H54.0514C53.9709 26.4279 53.9479 26.1864 53.9134 25.9679C53.8789 25.7149 53.8444 25.5769 53.5224 25.5194V25.5079C53.8329 25.4504 53.9824 25.2434 53.9824 24.9789C53.9824 24.4614 53.5454 24.3464 53.1314 24.3464H52.3954V26.6464H52.7519V25.6574H53.0509ZM53.1659 27.4744C54.2469 27.4744 55.1094 26.6119 55.1094 25.5309C55.1094 24.4614 54.2469 23.5874 53.1659 23.5874C52.0849 23.5874 51.2109 24.4614 51.2109 25.5309C51.2224 26.6119 52.0849 27.4744 53.1659 27.4744ZM53.1659 27.1409C52.2804 27.1409 51.5559 26.4164 51.5559 25.5309C51.5559 24.6569 52.2689 23.9324 53.1659 23.9324C54.0514 23.9324 54.7644 24.6569 54.7644 25.5309C54.7644 26.4164 54.0514 27.1409 53.1659 27.1409Z" fill="#9E9E9E"/>
<path d="M49.878 7.85898H46.75V10.9755H49.878C50.614 10.9755 51.212 11.585 51.212 12.321C51.212 13.0684 50.614 13.6549 49.878 13.6549H46.75V16.7829H49.878C52.339 16.7829 54.3399 14.7819 54.3399 12.321C54.3399 9.84846 52.3505 7.85898 49.878 7.85898ZM32.0761 24.3614C35.8135 24.3614 39.0335 22.1764 40.54 19.0024H44.519V24.3614H46.75V19.0024H49.878C53.581 19.0024 56.5709 16.0009 56.5709 12.3095C56.5709 8.61797 53.581 5.61649 49.878 5.61649H44.5305V13.6549H41.3565C40.7125 9.11247 36.8025 5.62798 32.0876 5.62798H21.1051L10.1801 24.3729H12.7906L15.9186 19.0139H27.1426V24.3729H32.0761V24.3614ZM59.6989 12.321C59.6989 17.7374 55.3059 22.1304 49.878 22.1304V27.4779H41.4025V23.3034C39.114 25.8679 35.779 27.4779 32.0761 27.4779H24.0031V22.1304H17.6896L14.5731 27.4779H4.66016L19.2306 2.5H32.0876C35.7905 2.5 39.1255 4.12149 41.414 6.68598V2.5H49.878C55.3059 2.5 59.6989 6.89298 59.6989 12.321ZM24.0031 7.85898V13.6549H19.0236L17.2066 16.7829H27.1311V7.85898H24.0031ZM39.2175 14.9889C39.2175 18.9334 36.0205 22.1304 32.0761 22.1304H29.3506V19.0024H32.0761C34.2955 19.0024 36.0895 17.2084 36.0895 14.9889C36.0895 12.7695 34.2955 10.9755 32.0761 10.9755H29.3506V7.85898H32.0761C36.0205 7.85898 39.2175 11.0445 39.2175 14.9889Z" fill="#9E9E9E"/>
</svg>
