<svg width="154" height="32" viewBox="0 0 154 32" fill="none" xmlns="http://www.w3.org/2000/svg">
<path fill-rule="evenodd" clip-rule="evenodd" d="M108.488 5.09326H105.555V23.1368H119.391L121.257 20.1739H108.488V5.09326Z" fill="#9E9E9E"/>
<path fill-rule="evenodd" clip-rule="evenodd" d="M68.072 5.99354L57.2578 23.1482H60.8428L64.1019 17.9633H71.0644L72.9014 15.0005H65.9388L69.7312 9.04523L78.6196 23.1186H82.2046L71.3015 5.90465C70.62 4.80842 68.8127 4.80842 68.072 5.99354Z" fill="#9E9E9E"/>
<path fill-rule="evenodd" clip-rule="evenodd" d="M89.0193 8.02644H101.404L103.241 5.09326H88.9304C83.9529 5.09326 80.6641 9.12268 80.6641 14.1002C80.6641 19.0777 83.9529 23.1071 88.9304 23.1071H101.048L102.945 20.1739H89.0193C85.6713 20.1739 83.6862 17.4482 83.6862 14.1002C83.6862 10.7522 85.6713 8.02644 89.0193 8.02644Z" fill="#9E9E9E"/>
<path fill-rule="evenodd" clip-rule="evenodd" d="M25.7351 5.09326H12.9654C7.98794 5.09326 4.69922 9.12268 4.69922 14.1002C4.69922 19.0777 7.98794 23.1071 12.9654 23.1071H25.7351C30.7126 23.1071 34.0013 19.0777 34.0013 14.1002C34.0013 9.12268 30.7423 5.09326 25.7351 5.09326ZM25.7351 20.1739H12.9654C9.61748 20.1739 7.6324 17.4482 7.6324 14.1002C7.6324 10.7522 9.58786 8.02644 12.9654 8.02644H25.7351C29.0831 8.02644 31.0682 10.7522 31.0682 14.1002C31.0682 17.4482 29.1127 20.1739 25.7351 20.1739Z" fill="#9E9E9E"/>
<path fill-rule="evenodd" clip-rule="evenodd" d="M129.699 8.02644H142.084L143.921 5.09326H129.61C124.633 5.09326 121.344 9.12268 121.344 14.1002C121.344 19.0777 124.633 23.1071 129.61 23.1071H141.728L143.624 20.1739H129.699C126.825 20.1739 124.988 18.1889 124.514 15.5223H140.128L141.995 12.5595H124.514C125.018 9.98189 126.884 8.02644 129.699 8.02644Z" fill="#9E9E9E"/>
<path fill-rule="evenodd" clip-rule="evenodd" d="M50.7987 15.7957C53.7615 15.7957 56.1614 13.3958 56.1614 10.433C56.1614 7.47018 53.7615 5.07031 50.7987 5.07031H35.7773V23.1138H39.0956V8.00349H50.8283C52.1616 8.00349 53.2578 9.09973 53.2578 10.433C53.2578 11.7663 52.1616 12.8625 50.8283 12.8625H41.4362L52.0431 23.1138H56.3095L48.7247 15.7957H50.7987Z" fill="#9E9E9E"/>
<path fill-rule="evenodd" clip-rule="evenodd" d="M147.091 4.8623C146.202 4.8623 145.461 5.54375 145.461 6.46222C145.461 7.38069 146.202 8.09177 147.091 8.09177C147.98 8.09177 148.72 7.41033 148.72 6.46222C148.72 5.54375 147.95 4.8623 147.091 4.8623ZM147.091 7.82511C146.35 7.82511 145.787 7.26218 145.787 6.49185C145.787 5.72152 146.35 5.15859 147.091 5.15859C147.831 5.15859 148.394 5.72152 148.394 6.49185C148.394 7.26218 147.802 7.82511 147.091 7.82511Z" fill="#9E9E9E"/>
<path fill-rule="evenodd" clip-rule="evenodd" d="M147.358 6.57751C147.624 6.54788 147.832 6.39974 147.832 6.07383C147.832 5.7183 147.624 5.54053 147.18 5.54053H146.469V7.4071H146.735V6.60714H147.061L147.565 7.4071H147.891L147.358 6.57751ZM146.735 6.37011V5.77755H147.121C147.328 5.77755 147.535 5.80718 147.535 6.0442C147.535 6.34048 147.328 6.34048 147.091 6.34048H146.735V6.37011Z" fill="#9E9E9E"/>
</svg>
