<svg width="211" height="36" viewBox="0 0 211 36" fill="none" xmlns="http://www.w3.org/2000/svg">
<path d="M31.5096 0C28.0485 0 24.9021 1.88785 23.1191 4.50986C21.3362 1.78297 18.1898 0 14.7287 0C9.17002 0 4.66016 4.50986 4.66016 10.0685C4.66016 13.6344 6.86265 16.1516 9.17002 18.4589L18.2946 27.0591C18.8191 27.4787 19.5532 27.164 19.5532 26.5347V19.8224C19.5532 17.9345 21.1264 16.3613 23.0143 16.2565C24.9021 16.2565 26.4753 17.8297 26.4753 19.8224V26.5347C26.4753 27.164 27.2095 27.4787 27.7339 27.0591L36.8585 18.4589C39.1658 16.1516 41.3683 13.5296 41.3683 10.0685C41.4732 4.50986 36.9634 0 31.5096 0ZM13.9946 17.7248C13.8897 17.8297 13.6799 17.9345 13.4702 17.9345C13.2604 17.9345 13.1555 17.8297 13.0506 17.7248C10.0091 15.1028 8.54073 12.271 8.54073 9.43923C8.54073 7.02699 10.0091 4.3001 12.0018 3.04153C12.3165 2.83177 12.736 2.93665 12.9457 3.25129C13.1555 3.56593 13.0506 3.98545 12.736 4.19522C11.1628 5.13914 10.0091 7.44651 10.0091 9.43923C10.0091 11.8515 11.3725 14.2637 14.0994 16.676C14.2043 16.9906 14.2043 17.515 13.9946 17.7248ZM18.3995 15.2077C18.2946 15.4174 18.0849 15.5223 17.7702 15.5223C17.6654 15.5223 17.5605 15.5223 17.4556 15.4174C15.4629 14.2637 14.0994 12.0612 14.0994 9.85876C14.0994 7.76115 15.2531 5.8733 17.141 4.92938C17.4556 4.71962 17.8751 4.92938 18.0849 5.24402C18.2946 5.55866 18.0849 5.97818 17.7702 6.18794C16.4068 6.9221 15.4629 8.39043 15.4629 9.96364C15.4629 11.6417 16.5117 13.4247 18.1898 14.3686C18.5044 14.3686 18.6093 14.7881 18.3995 15.2077ZM23.1191 13.4247C21.4411 13.4247 20.0776 12.0612 20.0776 10.3832C20.0776 8.70507 21.4411 7.34163 23.1191 7.34163C24.7972 7.34163 26.1607 8.70507 26.1607 10.3832C26.0558 12.0612 24.6924 13.4247 23.1191 13.4247ZM28.6778 15.4174C28.5729 15.5223 28.468 15.5223 28.3632 15.5223C28.1534 15.5223 27.8388 15.4174 27.7339 15.2077C27.5241 14.893 27.629 14.4735 28.0485 14.2637C29.6217 13.3198 30.7754 11.6417 30.7754 9.85876C30.7754 8.28555 29.9364 6.81722 28.468 6.08306C28.1534 5.8733 28.0485 5.45378 28.1534 5.13914C28.3632 4.8245 28.7827 4.71962 29.0973 4.8245C30.9852 5.76842 32.1389 7.65627 32.1389 9.75387C32.034 12.0612 30.6705 14.2637 28.6778 15.4174ZM37.6975 9.54412C37.6975 12.3759 36.2292 15.1028 33.1877 17.8297C33.0828 17.9345 32.873 18.0394 32.7681 18.0394C32.5584 18.0394 32.3486 17.9345 32.2437 17.8297C32.034 17.515 32.034 17.0955 32.3486 16.8857C35.0755 14.4735 36.439 12.0612 36.439 9.64899C36.439 7.65627 35.1804 5.45378 33.7121 4.40498C33.3974 4.19522 33.2925 3.77569 33.5023 3.46105C33.7121 3.14641 34.1316 3.04153 34.4462 3.25129C36.2292 4.40498 37.6975 7.13187 37.6975 9.54412Z" fill="#9E9E9E"/>
<path d="M53.8477 6.27344H58.9868V13.1955H65.4894V6.27344H70.6285V24.7324H65.4894V17.7054H58.9868V24.7324H53.8477V6.27344Z" fill="#9E9E9E"/>
<path d="M71.9922 17.6106C71.9922 13.4154 74.9289 10.1641 79.1241 10.1641C84.0535 10.1641 86.256 13.73 86.256 17.9252C86.256 18.2399 86.256 18.6594 86.256 18.974H76.7118C77.1314 20.5472 78.285 21.2814 79.7534 21.2814C80.9071 21.2814 81.851 20.8619 82.8998 19.8131L85.6267 22.1204C84.2632 23.9034 82.2705 25.0571 79.4387 25.0571C75.2435 25.0571 71.9922 22.0155 71.9922 17.6106ZM81.7461 16.352C81.7461 14.7788 80.5924 13.8349 79.229 13.8349C77.8655 13.8349 76.9216 14.8837 76.7118 16.352H81.7461Z" fill="#9E9E9E"/>
<path d="M103.246 10.4848H108.28V13.3166C109.119 11.3238 110.378 10.0653 112.79 10.1701V15.4142H112.371C109.748 15.4142 108.28 16.8825 108.28 20.2387V24.6436H103.246V10.4848Z" fill="#9E9E9E"/>
<path d="M115.834 20.2417V14.4733H114.156V10.4878H115.834V6.92188H120.868V10.4878H124.224V14.4733H120.868V19.2978C120.868 20.3466 121.287 20.7661 122.231 20.7661C122.861 20.7661 123.49 20.5563 124.119 20.3466V24.2271C123.175 24.7515 122.022 25.0662 120.658 25.0662C117.617 24.9613 115.834 23.7027 115.834 20.2417Z" fill="#9E9E9E"/>
<path d="M48.9189 10.2675C50.367 10.2675 51.5409 9.09354 51.5409 7.64545C51.5409 6.19735 50.367 5.02344 48.9189 5.02344C47.4708 5.02344 46.2969 6.19735 46.2969 7.64545C46.2969 9.09354 47.4708 10.2675 48.9189 10.2675Z" fill="#9E9E9E"/>
<path d="M101.255 17.5057C101.255 13.1007 98.1089 10.1641 93.599 10.1641C90.7673 10.1641 88.7745 11.3177 87.4111 13.1007L90.138 15.4081C91.1868 14.3593 92.1307 13.9398 93.2844 13.9398C94.8576 13.9398 95.9064 14.6739 96.3259 16.2471V16.352H93.0746C88.9843 16.4569 86.8867 17.9252 86.8867 20.8619C86.8867 23.6936 88.8794 25.162 92.2356 25.162C94.1234 25.162 95.4869 24.4278 96.4308 23.4839V24.8473H101.15V17.7155C101.255 17.7155 101.255 17.6106 101.255 17.5057ZM93.8088 21.8058C92.5502 21.9107 91.7112 21.0716 91.7112 20.2326C91.7112 19.3935 92.4453 18.8691 93.7039 18.8691H96.5357V18.974C96.5357 19.7082 96.3259 21.7009 93.8088 21.8058Z" fill="#9E9E9E"/>
<path d="M126.848 7.55662C126.848 7.03221 127.268 6.50781 127.897 6.50781H128.107C128.526 6.50781 128.841 6.71757 129.051 7.03221L135.553 16.7861L142.056 7.03221C142.265 6.71757 142.58 6.50781 143 6.50781H143.209C143.734 6.50781 144.258 6.92733 144.258 7.55662V23.8131C144.258 24.3375 143.839 24.8619 143.209 24.8619C142.685 24.8619 142.161 24.3375 142.161 23.8131V10.2835L136.392 18.7788C136.182 19.0935 135.868 19.3032 135.553 19.3032C135.238 19.3032 134.924 19.0935 134.714 18.7788L128.946 10.2835V23.8131C128.946 24.3375 128.526 24.8619 127.897 24.8619C127.372 24.8619 126.953 24.4424 126.953 23.8131L126.848 7.55662Z" fill="#9E9E9E"/>
<path d="M148.242 23.7049V7.65818C148.242 7.13378 148.662 6.60938 149.291 6.60938H160.513C161.037 6.60938 161.457 7.0289 161.457 7.5533C161.457 8.0777 161.037 8.49722 160.513 8.49722H150.34V14.6852H159.359C159.884 14.6852 160.303 15.1047 160.303 15.6291C160.303 16.1535 159.884 16.573 159.359 16.573H150.34V22.8658H160.723C161.247 22.8658 161.667 23.2854 161.667 23.8098C161.667 24.3342 161.247 24.7537 160.723 24.7537H149.396C148.766 24.7537 148.242 24.2293 148.242 23.7049Z" fill="#9E9E9E"/>
<path d="M170.895 22.8658C175.51 22.8658 178.342 19.7194 178.342 15.734C178.342 11.7485 175.405 8.6021 170.895 8.6021H166.7V22.8658H170.895ZM164.602 7.65818C164.602 7.13378 165.022 6.60938 165.651 6.60938H170.895C176.559 6.60938 180.544 10.4899 180.544 15.6291C180.544 20.7682 176.664 24.6488 170.895 24.6488H165.651C165.127 24.6488 164.602 24.2293 164.602 23.6V7.65818Z" fill="#9E9E9E"/>
<path d="M184.109 7.55662C184.109 7.03221 184.528 6.50781 185.157 6.50781C185.682 6.50781 186.206 6.92733 186.206 7.55662V23.8131C186.206 24.3375 185.787 24.8619 185.157 24.8619C184.633 24.8619 184.109 24.4424 184.109 23.8131V7.55662Z" fill="#9E9E9E"/>
<path d="M202.045 18.0402L197.849 8.81069L193.654 18.0402H202.045ZM189.249 23.3891L196.591 7.34236C196.801 6.81796 197.22 6.39844 197.849 6.39844H197.954C198.583 6.39844 199.003 6.71308 199.213 7.34236L206.554 23.3891C206.659 23.5988 206.659 23.7037 206.659 23.9135C206.659 24.4379 206.24 24.8574 205.715 24.8574C205.191 24.8574 204.876 24.5427 204.667 24.1232L202.779 19.928H192.815L190.927 24.1232C190.717 24.5427 190.403 24.8574 189.983 24.8574C189.459 24.8574 189.039 24.4379 189.039 23.9135C189.144 23.7037 189.144 23.5988 189.249 23.3891Z" fill="#9E9E9E"/>
<path d="M49.0232 11.5078H48.8134C47.3451 11.5078 46.1914 12.6615 46.1914 14.1298V24.7227H51.6452V14.1298C51.6452 12.6615 50.3866 11.5078 49.0232 11.5078Z" fill="#9E9E9E"/>
</svg>
