<svg width="10" height="7" viewBox="0 0 10 7" fill="none" xmlns="http://www.w3.org/2000/svg">
<path d="M9.8668 1.60393L5.32157 6.60337C5.27936 6.64986 5.22923 6.68673 5.17405 6.71189C5.11888 6.73705 5.05973 6.75 5 6.75C4.94027 6.75 4.88112 6.73705 4.82594 6.71189C4.77077 6.68673 4.72064 6.64986 4.67842 6.60337L0.133201 1.60393C0.0479136 1.51012 0 1.38289 0 1.25022C0 1.11755 0.0479136 0.990321 0.133201 0.896511C0.218487 0.802702 0.334161 0.75 0.454775 0.75C0.575389 0.75 0.691063 0.802702 0.77635 0.896511L5 5.54287L9.22365 0.896511C9.26588 0.850061 9.31601 0.813215 9.37119 0.788077C9.42636 0.762938 9.4855 0.75 9.54522 0.75C9.60495 0.75 9.66408 0.762938 9.71926 0.788077C9.77444 0.813215 9.82457 0.850061 9.8668 0.896511C9.90903 0.942961 9.94253 0.998106 9.96538 1.0588C9.98824 1.11948 10 1.18453 10 1.25022C10 1.31591 9.98824 1.38096 9.96538 1.44165C9.94253 1.50234 9.90903 1.55748 9.8668 1.60393Z" fill="black"/>
</svg>
