<svg width="304" height="239" viewBox="0 0 304 239" fill="none" xmlns="http://www.w3.org/2000/svg">
<path d="M275.584 0H28.4156C12.7403 0 0 13.4129 0 29.9956V281.038C0 297.587 12.7403 311.033 28.4156 311.033H31.0837C34.5523 311.033 37.3538 308.064 37.3538 304.427V253.878C37.3538 246.404 41.0558 239.464 47.1592 235.594L110.26 195.489V193.62L47.0591 153.081C41.0225 149.211 37.3538 142.304 37.3538 134.83V86.3166C37.3538 68.8664 56.0974 58.79 69.4714 69.0333L148.348 129.358C155.485 134.83 165.157 134.763 172.261 129.258L236.997 78.8761C250.371 68.466 269.248 78.5424 269.248 96.0593V150.078C269.248 157.585 265.512 164.525 259.409 168.396L207.747 201.094V202.962L259.409 235.661C265.512 239.531 269.248 246.471 269.248 253.978V304.494C269.248 308.164 272.049 311.1 275.518 311.1C291.226 311.1 303.933 297.687 303.933 281.104V29.9956C303.933 13.4463 291.193 0 275.518 0H275.584Z" fill="url(#paint0_linear_1186_24339)"/>
<defs>
<linearGradient id="paint0_linear_1186_24339" x1="0" y1="155.517" x2="304" y2="155.517" gradientUnits="userSpaceOnUse">
<stop stop-color="#683FEA"/>
<stop offset="1" stop-color="#100472"/>
</linearGradient>
</defs>
</svg>
